# xmcd
# 
# Track frame offsets:
#     150
#     14121
#     23304
#     34543
#     49459
#     64159
#     64933
#     74896
#     91757
#     106986
# 
# Disc length: 1600
# 
# Revision: 0
# Processed by: cddbd v1.5.2PL0 Copyright (c) Steve Scherf et al.
# Submitted via: BonkEnc v1.0.8
# 
DISCID=89063e0a
DTITLE=Undertaker Blues Band - Undertaker
DYEAR=2009
DGENRE=Blues
TTITLE0=come on in my kitchen
TTITLE1=the letter
TTITLE2=honeymoonblues
TTITLE3=perpetual bluesmachine
TTITLE4=rambling on my mind
TTITLE5=potato harvest
TTITLE6=wake up
TTITLE7=little red flamed kitchen
TTITLE8=beatrice
TTITLE9=drunken hearted man
EXTD=
EXTT0=
EXTT1=
EXTT2=
EXTT3=
EXTT4=
EXTT5=
EXTT6=
EXTT7=
EXTT8=
EXTT9=
PLAYORDER=
